<?xml version="1.0" encoding="UTF-8"?>
<svg xmlns="http://www.w3.org/2000/svg" xmlns:xlink="http://www.w3.org/1999/xlink" width="300px" height="px" viewBox="0 0 298 61" version="1.1">
<g id="surface1">
<path style=" stroke:none;fill-rule:evenodd;fill:rgb(2.745098%,6.666667%,34.901961%);fill-opacity:1;" d="M 28.871094 33.789062 L 28.402344 21.726562 L 38.808594 15.167969 L 49.316406 20.800781 L 49.851562 33.1875 L 39.445312 39.746094 Z M 28.871094 33.789062 "/>
<path style=" stroke:none;fill-rule:evenodd;fill:rgb(2.745098%,6.666667%,34.901961%);fill-opacity:1;" d="M 8.222656 31.449219 L 8.160156 14.117188 L 30.773438 0 L 41.585938 6.457031 C 33.789062 11.527344 30.203125 13.664062 22.296875 18.578125 L 22.148438 23.191406 Z M 8.222656 31.449219 "/>
<path style=" stroke:none;fill-rule:evenodd;fill:rgb(2.745098%,6.666667%,34.901961%);fill-opacity:1;" d="M 9.296875 55.613281 L 0 40.882812 L 22.222656 27.875 L 23.117188 37.398438 L 31.449219 41.714844 Z M 9.296875 55.613281 "/>
<path style=" stroke:none;fill-rule:evenodd;fill:rgb(2.745098%,6.666667%,34.901961%);fill-opacity:1;" d="M 20.933594 53.1875 L 36.3125 61.183594 L 59.339844 47.09375 L 57.878906 35.015625 C 49.898438 39.789062 46.800781 41.800781 38.820312 46.570312 L 34.652344 44.589844 Z M 20.933594 53.1875 "/>
<path style=" stroke:none;fill-rule:evenodd;fill:rgb(0%,0%,0%);fill-opacity:1;" d="M 88.5625 25.179688 L 92.089844 25.179688 L 92.089844 9.65625 L 98.019531 9.65625 L 98.019531 6.449219 C 92.597656 6.449219 88.03125 6.449219 82.632812 6.449219 L 82.632812 9.65625 L 88.5625 9.65625 Z M 119.507812 25.179688 L 119.507812 6.503906 L 116.007812 6.503906 L 116.007812 14.386719 L 106.816406 14.386719 L 106.816406 6.503906 L 103.292969 6.503906 L 103.292969 25.179688 L 106.816406 25.179688 L 106.816406 17.644531 L 116.007812 17.644531 L 116.007812 25.179688 Z M 139.871094 21.707031 L 129.375 21.707031 L 129.375 17.484375 L 139.5 17.484375 L 139.5 14.199219 L 129.375 14.199219 L 129.375 9.871094 L 139.871094 9.871094 L 139.871094 6.449219 L 125.875 6.449219 C 125.875 12.691406 125.875 18.953125 125.875 25.179688 L 139.871094 25.179688 Z M 139.871094 21.707031 "/>
<path style=" stroke:none;fill-rule:evenodd;fill:rgb(0%,0%,0%);fill-opacity:1;" d="M 97.246094 49.46875 C 96.019531 50.699219 94.175781 51.367188 92.546875 51.367188 C 87.921875 51.367188 86.132812 48.132812 86.105469 45.035156 C 86.078125 41.910156 88.03125 38.542969 92.546875 38.542969 C 94.175781 38.542969 95.832031 39.105469 97.058594 40.304688 L 99.410156 38.035156 C 97.488281 36.136719 95.082031 35.175781 92.546875 35.175781 C 85.785156 35.175781 82.605469 40.144531 82.632812 45.035156 C 82.660156 49.898438 85.597656 54.679688 92.546875 54.679688 C 95.242188 54.679688 97.726562 53.800781 99.652344 51.902344 Z M 97.246094 49.46875 "/>
<path style=" stroke:none;fill-rule:evenodd;fill:rgb(0%,0%,0%);fill-opacity:1;" d="M 118.761719 54.253906 L 122.605469 54.253906 L 114.21875 35.523438 L 110.371094 35.523438 L 101.984375 54.253906 L 105.804688 54.253906 L 107.40625 50.726562 L 117.183594 50.726562 Z M 115.769531 47.441406 L 108.820312 47.441406 L 112.296875 39.460938 Z M 115.769531 47.441406 "/>
<path style=" stroke:none;fill-rule:evenodd;fill:rgb(0%,0%,0%);fill-opacity:1;" d="M 143.878906 54.011719 L 138.214844 47.628906 C 141.769531 46.90625 142.945312 44.3125 142.945312 41.734375 C 142.945312 38.488281 140.621094 35.550781 136.210938 35.523438 C 133.246094 35.550781 130.28125 35.523438 127.316406 35.523438 L 127.316406 54.253906 L 130.84375 54.253906 L 130.84375 48 L 134.234375 48 L 139.683594 54.253906 L 143.878906 54.253906 Z M 136.210938 38.808594 C 138.429688 38.808594 139.417969 40.308594 139.417969 41.816406 C 139.417969 43.320312 138.457031 44.820312 136.210938 44.820312 L 130.84375 44.820312 L 130.84375 38.808594 Z M 136.210938 38.808594 "/>
<path style=" stroke:none;fill-rule:evenodd;fill:rgb(0%,0%,0%);fill-opacity:1;" d="M 151.957031 38.890625 L 157.246094 38.890625 C 161.734375 38.890625 161.761719 45.515625 157.246094 45.515625 L 151.957031 45.515625 Z M 157.246094 35.523438 C 154.304688 35.496094 151.367188 35.523438 148.429688 35.523438 L 148.429688 54.253906 L 151.957031 54.253906 L 151.957031 48.75 L 157.246094 48.75 C 166.410156 48.75 166.382812 35.523438 157.246094 35.523438 Z M 157.246094 35.523438 "/>
<path style=" stroke:none;fill-rule:evenodd;fill:rgb(0%,0%,0%);fill-opacity:1;" d="M 183.539062 50.78125 L 173.042969 50.78125 L 173.042969 46.558594 L 183.167969 46.558594 L 183.167969 43.273438 L 173.042969 43.273438 L 173.042969 38.945312 L 183.539062 38.945312 L 183.539062 35.523438 L 169.542969 35.523438 C 169.542969 41.765625 169.542969 48.027344 169.542969 54.253906 L 183.539062 54.253906 Z M 183.539062 50.78125 "/>
<path style=" stroke:none;fill-rule:evenodd;fill:rgb(0%,0%,0%);fill-opacity:1;" d="M 202.222656 47.136719 L 193.058594 35.523438 L 190.199219 35.523438 L 190.199219 54.253906 L 193.726562 54.253906 L 193.726562 41.625 L 203.558594 54.253906 L 205.75 54.253906 L 205.75 35.523438 L 202.222656 35.523438 Z M 202.222656 47.136719 "/>
<path style=" stroke:none;fill-rule:evenodd;fill:rgb(0%,0%,0%);fill-opacity:1;" d="M 216.921875 54.253906 L 220.449219 54.253906 L 220.449219 38.730469 L 226.378906 38.730469 L 226.378906 35.523438 C 220.957031 35.523438 216.390625 35.523438 210.992188 35.523438 L 210.992188 38.730469 L 216.921875 38.730469 Z M 216.921875 54.253906 "/>
<path style=" stroke:none;fill-rule:evenodd;fill:rgb(0%,0%,0%);fill-opacity:1;" d="M 248.214844 54.011719 L 242.550781 47.628906 C 246.105469 46.90625 247.28125 44.3125 247.28125 41.734375 C 247.28125 38.488281 244.957031 35.550781 240.546875 35.523438 C 237.582031 35.550781 234.617188 35.523438 231.652344 35.523438 L 231.652344 54.253906 L 235.179688 54.253906 L 235.179688 48 L 238.570312 48 L 244.019531 54.253906 L 248.214844 54.253906 Z M 240.546875 38.808594 C 242.765625 38.808594 243.753906 40.308594 243.753906 41.816406 C 243.753906 43.320312 242.792969 44.820312 240.546875 44.820312 L 235.179688 44.820312 L 235.179688 38.808594 Z M 240.546875 38.808594 "/>
<path style=" stroke:none;fill-rule:evenodd;fill:rgb(0%,0%,0%);fill-opacity:1;" d="M 256.289062 54.253906 L 256.289062 35.523438 L 252.789062 35.523438 L 252.789062 54.253906 Z M 256.289062 54.253906 "/>
<path style=" stroke:none;fill-rule:evenodd;fill:rgb(0%,0%,0%);fill-opacity:1;" d="M 276.65625 50.78125 L 266.15625 50.78125 L 266.15625 46.558594 L 276.28125 46.558594 L 276.28125 43.273438 L 266.15625 43.273438 L 266.15625 38.945312 L 276.65625 38.945312 L 276.65625 35.523438 L 262.65625 35.523438 C 262.65625 41.765625 262.65625 48.027344 262.65625 54.253906 L 276.65625 54.253906 Z M 276.65625 50.78125 "/>
<path style=" stroke:none;fill-rule:evenodd;fill:rgb(0%,0%,0%);fill-opacity:1;" d="M 297.394531 38.621094 C 295.976562 35.738281 292.960938 34.910156 290.046875 34.910156 C 286.601562 34.9375 282.808594 36.511719 282.808594 40.359375 C 282.808594 44.554688 286.335938 45.570312 290.15625 46.023438 C 292.640625 46.289062 294.480469 47.011719 294.480469 48.777344 C 294.480469 50.804688 292.398438 51.582031 290.179688 51.582031 C 287.910156 51.582031 285.746094 50.671875 284.917969 48.617188 L 281.980469 50.136719 C 283.371094 53.558594 286.308594 54.734375 290.128906 54.734375 C 294.296875 54.734375 297.980469 52.945312 297.980469 48.777344 C 297.980469 44.3125 294.347656 43.296875 290.449219 42.816406 C 288.203125 42.550781 286.28125 42.097656 286.28125 40.464844 C 286.28125 39.078125 287.535156 37.980469 290.15625 37.980469 C 292.183594 37.980469 293.949219 38.996094 294.589844 40.066406 Z M 297.394531 38.621094 "/>
<path style=" stroke:none;fill-rule:evenodd;fill:rgb(0%,0%,0%);fill-opacity:1;" d="M 69.632812 0 L 69.632812 61.183594 L 71.625 61.183594 L 71.625 0 Z M 69.632812 0 "/>
</g>
</svg>
